<?xml version="1.0" encoding="UTF-8" standalone="no"?>
<svg width="318px" height="309px" viewBox="0 0 318 309" version="1.1" xmlns="http://www.w3.org/2000/svg" xmlns:xlink="http://www.w3.org/1999/xlink">
    <!-- Generator: Sketch 3.6 (26304) - http://www.bohemiancoding.com/sketch -->
    <title>ApparatusLogoOL</title>
    <desc>Created with Sketch.</desc>
    <defs></defs>
    <g id="Page-1" stroke="none" stroke-width="1" fill="none" fill-rule="evenodd">
        <g id="ApparatusLogoOL" transform="translate(2.000000, 2.000000)" stroke="#FFFFFF" stroke-width="4">
            <path d="M283.8594,0.2103 L31.0664,0.2103 C14.5154,0.2103 0.9724,13.7523 0.9724,30.3043 L0.9724,274.3253 C0.9724,290.0763 13.2444,303.0763 28.6934,304.2993 L49.5454,268.9013 L43.5344,268.9013 C40.2224,268.9013 37.5144,266.1933 37.5144,262.8833 L37.5144,41.7483 C37.5144,38.4373 40.2224,35.7303 43.5344,35.7303 L271.3914,35.7303 C274.7034,35.7303 277.4124,38.4373 277.4124,41.7483 L277.4124,262.8833 C277.4124,266.1933 274.7034,268.9013 271.3914,268.9013 L265.3804,268.9013 L286.2324,304.2993 C301.6824,303.0763 313.9534,290.0763 313.9534,274.3253 L313.9534,30.3043 C313.9534,13.7523 300.4104,0.2103 283.8594,0.2103" id="Fill-1"></path>
            <path d="M226.8564,304.4202 L205.9334,268.9022 L108.9924,268.9022 L88.0704,304.4202 L226.8564,304.4202 Z" id="Fill-3"></path>
            <path d="M157.4629,171.5677 L235.7179,304.4197 L277.4399,304.4197 L157.4629,100.7397 L37.4859,304.4177 L79.2079,304.4197 L157.4629,171.5677 Z" id="Fill-5"></path>
        </g>
    </g>
</svg>