<?xml version="1.0" encoding="UTF-8" standalone="no"?>
<svg width="314px" height="305px" viewBox="0 0 314 305" version="1.1" xmlns="http://www.w3.org/2000/svg" xmlns:xlink="http://www.w3.org/1999/xlink">
    <!-- Generator: Sketch 3.6 (26304) - http://www.bohemiancoding.com/sketch -->
    <title>ApparatusLogo</title>
    <desc>Created with Sketch.</desc>
    <defs></defs>
    <g id="Page-1" stroke="none" stroke-width="1" fill="none" fill-rule="evenodd">
        <g id="ApparatusLogo">
            <rect id="Rectangle-1" fill="#FFFFFF" x="2" y="1" width="312" height="303" rx="30"></rect>
            <path d="M283.8594,0.2103 L31.0664,0.2103 C14.5154,0.2103 0.9724,13.7483366 0.9724,30.2954922 L0.9724,274.245073 C0.9724,289.991463 13.2444,302.987658 28.6934,304.2103 L49.5454,268.82266 L43.5344,268.82266 C40.2224,268.82266 37.5144,266.115453 37.5144,262.806422 L37.5144,41.7361428 C37.5144,38.4261118 40.2224,35.7199041 43.5344,35.7199041 L271.3914,35.7199041 C274.7034,35.7199041 277.4124,38.4261118 277.4124,41.7361428 L277.4124,262.806422 C277.4124,266.115453 274.7034,268.82266 271.3914,268.82266 L265.3804,268.82266 L286.2324,304.2103 C301.6824,302.987658 313.9534,289.991463 313.9534,274.245073 L313.9534,30.2954922 C313.9534,13.7483366 300.4104,0.2103 283.8594,0.2103" id="Fill-1" fill="#313131"></path>
            <path d="M226.8564,304.4202 L205.9334,268.9022 L108.9924,268.9022 L88.0704,304.4202 L226.8564,304.4202 Z" id="Fill-3" fill="#313131"></path>
            <path d="M157.4629,171.5677 L235.7179,304.4197 L277.4399,304.4197 L277.4359,304.4117 L157.4629,100.7397 L37.4859,304.4177 L37.4859,304.4197 L79.2079,304.4197 L157.4629,171.5677 Z" id="Fill-5" fill="#36A1CE"></path>
        </g>
    </g>
</svg>