<?xml version="1.0" encoding="UTF-8" standalone="no"?>
<svg width="101px" height="99px" viewBox="0 0 101 99" version="1.1" xmlns="http://www.w3.org/2000/svg" xmlns:xlink="http://www.w3.org/1999/xlink">
    <!-- Generator: Sketch 41.2 (35397) - http://www.bohemiancoding.com/sketch -->
    <title>atomo_hover</title>
    <desc>Created with Sketch.</desc>
    <defs></defs>
    <g id="version-3" stroke="none" stroke-width="1" fill="none" fill-rule="evenodd">
        <g id="Desktop-HD-Copy-4" transform="translate(-600.000000, -754.000000)">
            <g id="Atomo_Logo_B_W_ICON" transform="translate(536.000000, -2884.000000)">
                <g id="atomo_hover" transform="translate(63.000000, 3638.000000)">
                    <g id="Group-41" transform="translate(0.000000, 0.046961)" fill="#1A1918">
                        <path d="M52.7978436,98.6592056 L50.0120255,98.6592056 C23.0547891,98.6592056 0.999407273,76.5399278 0.999407273,49.5045944 L0.999407273,49.5045944 C0.999407273,22.4692611 23.0547891,0.349983333 50.0120255,0.349983333 L52.7978436,0.349983333 C79.75508,0.349983333 101.810462,22.4692611 101.810462,49.5045944 L101.810462,49.5045944 C101.810462,76.5399278 79.75508,98.6592056 52.7978436,98.6592056" id="Fill-39"></path>
                    </g>
                    <path d="M82.5165964,49.4570389 C82.3921236,41.1348167 79.3217964,34.0847056 73.3056145,28.31265 C67.2835055,22.53465 60.1055782,19.64565 51.7718327,19.64565 C43.56256,19.64565 36.4913236,22.5940944 30.5640509,28.4969278 C24.6367782,34.3938167 21.6731418,41.4795944 21.6731418,49.7364278 C21.6731418,57.9397611 24.6367782,64.9839278 30.5640509,70.8867611 C36.4913236,76.7895944 43.5921964,79.7677611 51.8607418,79.8272056 C60.2596873,79.8925944 67.4791055,76.9382056 73.5308509,70.9759278 C79.5825964,65.0195944 82.5758691,57.84465 82.5165964,49.4570389 M89.3685236,48.9933722 C89.3685236,59.3367056 85.7113964,68.1998722 78.3912145,75.6007056 C71.07696,83.0015389 62.2986691,86.7049278 52.0444873,86.7049278 C41.8614327,86.7049278 33.0475782,83.1442056 25.6088509,76.0168167 C18.1641964,68.9072611 14.4477964,60.3234833 14.4477964,50.2952056 C14.4477964,40.0172611 18.0752873,31.1957056 25.3302691,23.8245944 C32.5852509,16.4594278 41.3339055,12.7738722 51.5880873,12.7738722 C61.8304145,12.7738722 70.6916873,16.2870389 78.1659782,23.3133722 C85.6343418,30.3397056 89.3685236,38.90565 89.3685236,48.9933722" id="Fill-42" fill="#FFFFFF"></path>
                    <path d="M64.2825273,49.7388056 C64.2825273,56.59275 58.7405273,62.1448611 51.9123091,62.1448611 C45.0781636,62.1448611 39.5361636,56.59275 39.5361636,49.7388056 C39.5361636,42.8848611 45.0781636,37.33275 51.9123091,37.33275 C58.7405273,37.33275 64.2825273,42.8848611 64.2825273,49.7388056" id="Fill-44" fill="#FFFFFF"></path>
                    <path d="M58.4056364,9.41169444 C62.4065455,13.0080833 62.7444,19.1784167 59.1584,23.1968611 C55.5724,27.2093611 49.4198909,27.5481944 45.4130545,23.9518056 C41.4121455,20.3554167 41.0742909,14.1791389 44.6602909,10.1666389 C48.2462909,6.15413889 54.4047273,5.81530556 58.4056364,9.41169444" id="Fill-46" fill="#FFFFFF"></path>
                    <path d="M58.4056364,9.41169444 L57.7595636,10.1309722 C59.6977818,11.8726944 60.6757818,14.2683056 60.6757818,16.68175 C60.6757818,18.7741944 59.9408,20.8666389 58.4412,22.5489167 C56.7045091,24.4868056 54.3158182,25.4735833 51.9034182,25.4735833 C49.8170182,25.4735833 47.7306182,24.7364722 46.0591273,23.2325278 C44.1209091,21.4908056 43.1429091,19.0951944 43.1429091,16.6758056 C43.1429091,14.5833611 43.8778909,12.4909167 45.3774909,10.8145833 C47.1141818,8.87075 49.5028727,7.88991667 51.9093455,7.88991667 C53.9957455,7.88991667 56.0821455,8.62702778 57.7595636,10.1309722 L58.4056364,9.41169444 L59.0517091,8.69241667 C57.0068,6.85558333 54.4521455,5.95202778 51.9093455,5.95202778 C48.9812727,5.95202778 46.0532,7.15875 43.9430909,9.51869444 C42.1115636,11.5635833 41.2106182,14.1315833 41.2106182,16.6758056 C41.2106182,19.6183056 42.4138545,22.5548611 44.7729091,24.6710833 C46.8059636,26.5019722 49.3665455,27.4114722 51.9034182,27.4114722 C54.8374182,27.4114722 57.7654909,26.20475 59.8756,23.8388611 C61.7071273,21.7939722 62.6080727,19.2319167 62.6080727,16.68175 C62.6080727,13.7451944 61.4048364,10.8086389 59.0517091,8.69241667 L58.4056364,9.41169444 Z" id="Fill-48" fill="#FFFFFF"></path>
                </g>
            </g>
        </g>
    </g>
</svg>