<?xml version="1.0" encoding="UTF-8" standalone="no"?>
<svg width="1055px" height="402px" viewBox="0 0 1055 402" version="1.1" xmlns="http://www.w3.org/2000/svg" xmlns:xlink="http://www.w3.org/1999/xlink" xmlns:sketch="http://www.bohemiancoding.com/sketch/ns">
    <!-- Generator: Sketch 3.5.2 (25235) - http://www.bohemiancoding.com/sketch -->
    <title>MixablyLogoText</title>
    <desc>Created with Sketch.</desc>
    <defs></defs>
    <g id="Page-1" stroke="none" stroke-width="1" fill="none" fill-rule="evenodd" sketch:type="MSPage">
        <g id="MixablyLogoText" sketch:type="MSLayerGroup" fill="#FFFFFF">
            <g id="Layer_1" sketch:type="MSShapeGroup">
                <g id="XMLID_69_">
                    <path d="M142.8,222.8 L229.8,14.8 C232,9.6 237.1,6.2 242.7,6.2 L266,6.2 C272.7,6.2 277.9,12.2 277,18.9 L238.6,288.2 C237.7,294.6 232.2,299.4 225.7,299.4 L206.6,299.4 C198.7,299.4 192.6,292.4 193.7,284.6 L217,120.2 C217.6,115.9 211.6,114.2 209.9,118.2 L137.6,291.3 C135.6,296.1 130.8,299.3 125.6,299.3 L106.2,299.3 C98.3,299.3 92,292.7 92.3,284.8 L99.7,119.1 C99.9,114.9 94,113.7 92.5,117.6 L27,294.1 C25.8,297.2 22.9,299.3 19.5,299.3 L10.6,299.3 C6,299.3 2.8,294.7 4.4,290.4 L99.6,33.3 C101.6,27.9 96.2,22.7 90.9,24.8 C49.5,40.9 35.7,70.8 37.1,115.3 L37.1,115.3 C37.6,129.9 20.2,137.9 9.4,128.6 C3.2,123.4 0,115.6 0,106.9 C0,52.4 75.6,0.6 123.4,0.6 C127.4,0.6 130.8,0.6 135.1,1.7 C142.8,3.7 146.4,10.1 146.4,16.3 L137.3,221.6 C137.2,224.8 141.5,225.7 142.8,222.8 L142.8,222.8 Z" id="XMLID_84_"></path>
                    <path d="M406.9,110.7 L421.3,190.5 C448.1,160 461.7,137.6 464.3,120.6 C464.6,118.6 462.9,116.8 460.8,117 C459.7,117.1 458.6,117.2 457.5,117.2 C444,117.2 433.6,108.7 433.6,94.6 C433.6,79.7 444.8,71.1 459.5,72 C472.9,72.8 486.1,84.2 486.1,107.2 C486.1,135.9 469.1,162.2 425.3,210.7 L428.5,227.8 C431.7,245.7 434.1,271.2 450,271.2 C463.1,271.2 477.1,253.3 487.8,227.8 L502.5,227.8 C476.6,294.3 450.7,301.5 433.6,301.5 C407.3,301.5 395.8,290.3 386.6,252.1 C363.8,289.3 338.4,301.5 300.5,301.5 C283,301.5 260.3,294.1 260.3,258.1 C260.3,249.7 261.5,239.8 263.9,227.8 L287.8,109.8 C289,103.9 294.2,99.7 300.2,99.7 L317.2,99.7 C323.9,99.7 328.9,105.9 327.5,112.4 L302.2,235.6 C301,240.4 300.6,245.2 300.6,248.7 C300.6,264.6 309,271.4 320.5,271.4 C338.2,271.4 369.9,255.5 382.6,230 L361.6,111.7 C360.5,105.7 365.1,100.2 371.2,100.2 L394.1,100.2 C400.4,100.2 405.8,104.6 406.9,110.7 L406.9,110.7 Z M333.2,20.3 C338.9,22.9 343.5,27.5 346.1,33.2 C359,61.4 328.5,86.8 302.8,70.4 C300.1,68.7 297.7,66.3 296,63.6 C279.6,37.9 305,7.4 333.2,20.3 L333.2,20.3 Z" id="XMLID_81_"></path>
                    <path d="M639.7,100.2 C645.1,100.2 649.2,105.2 648,110.5 L621.2,235.6 C620,240.4 619.2,247.2 619.2,253.5 C619.2,262.7 621.6,271.4 631.5,271.4 C644.2,271.4 657.8,255.1 669.3,228 L684,228 C658.1,294.5 632.2,301.7 614.7,301.7 C597.2,301.7 584.8,290.2 582.8,262.7 C570.5,284.2 547.8,301.7 522.3,301.7 C496.4,301.7 471.3,284.2 471.3,237.6 C471.3,183.8 506.3,98.2 573.3,98.2 C583.1,98.2 594.7,101 601.4,109.6 C603.5,112.2 607.6,111.3 608.3,108 L608.3,108 C609.3,103.4 613.3,100.1 618,100.1 L639.7,100.1 L639.7,100.2 L639.7,100.2 Z M582.9,228 L600.8,143.4 C602.2,137 600.6,130.1 596,125.5 C592.7,122.2 588.1,120 582.1,120 C538.3,120 514,192.1 514,231.9 C514,262.2 524,271.3 539.1,271.3 C555.9,271.4 577.8,252.3 582.9,228 L582.9,228 Z" id="XMLID_78_"></path>
                    <path d="M709,25 L728.2,22.4 C734.6,21.5 740,27.3 738.6,33.7 L725.6,94.3 C724.1,101.3 731.2,107 737.7,104 C744,101.1 750.9,99.5 758.5,99.5 C783.6,99.5 811.9,108.3 811.9,164.4 C811.9,226.1 766.9,301.8 701.2,301.8 C673.3,301.8 654.2,291.8 654.2,256.8 C654.2,248 655.4,238.1 657.4,228.1 L699,34.2 C700.1,29.3 704,25.6 709,25 L709,25 Z M746.6,120.1 C743.6,120.1 740.8,120.6 738.1,121.4 C726.3,125 717.6,135.1 714.9,147.2 L694.4,238.4 C693.2,244 692.4,248.8 692.4,253.5 C692.4,267 699.2,274.2 712.3,274.2 C747.7,274.2 775.2,220 775.2,168.7 C775.2,138.4 765.7,120.1 746.6,120.1 L746.6,120.1 Z" id="XMLID_75_"></path>
                    <path d="M886.5,21.8 C891.2,21.2 895.2,25.4 894.1,30.1 L849.7,235.6 C848.5,240.4 847.7,247.2 847.7,253.5 C847.7,262.7 850.1,271.4 860,271.4 C872.1,271.4 884.9,256.7 896.1,232 C897.2,229.6 899.6,228 902.2,228 L902.3,228 C907.2,228 910.6,233.1 908.6,237.6 C884,295.2 859.9,301.7 843.2,301.7 C816.1,301.7 807.8,281.4 807.8,257.5 C807.8,247.9 809.4,237.6 811.4,228 L853.8,30.8 C854.4,28 856.7,25.8 859.6,25.4 L886.5,21.8 L886.5,21.8 Z" id="XMLID_73_"></path>
                    <path d="M955.1,100.2 C958,100.2 960.2,102.9 959.6,105.7 L931.7,235.6 C930.5,240.4 930.1,244.8 930.1,248.7 C930.1,264.2 938.1,271.4 948,271.4 C963.1,271.4 982.6,255.5 988.2,228 L1014.8,102.6 C1015.1,101.2 1016.4,100.1 1017.9,100.1 L1051.3,100.1 C1053.3,100.1 1054.8,101.9 1054.4,103.9 L1006.2,331.1 C997.1,377.3 978.3,401.5 952,401.5 C925.2,401.5 908.2,388.9 908.2,363 C908.2,337.2 940.9,317.1 970.4,305.1 C971.4,304.7 972.1,303.9 972.3,302.9 L974,294.5 C974.9,290.2 969.9,287.1 966.5,289.8 C956.2,298 945.2,301.7 934.9,301.7 C911,301.7 891.1,281.4 891.1,248.3 C891.1,241.9 891.9,235.2 893.5,228 L919.8,104 C920.3,101.8 922.2,100.2 924.5,100.2 C924.5,100.2 955.1,100.2 955.1,100.2 L955.1,100.2 Z M965.9,332 L967.2,326.3 C967.8,323.4 964.8,321 962.2,322.3 C937,334.5 923.8,349.5 923.8,362.7 C923.8,371.5 929,378.2 938.5,378.2 C953.2,378.2 959.9,359.4 965.9,332 L965.9,332 Z" id="XMLID_70_"></path>
                </g>
            </g>
        </g>
    </g>
</svg>